<svg width="33" height="41" viewBox="0 0 33 41" fill="none" xmlns="http://www.w3.org/2000/svg">
<mask id="path-1-inside-1_16_184" fill="white">
<path d="M16.5 40.0715C18.7688 40.0715 20.625 38.2503 20.625 36.0243H12.375C12.375 38.2503 14.2106 40.0715 16.5 40.0715ZM28.875 27.93V17.812C28.875 11.5996 25.4925 6.39903 19.5938 5.02299V3.64695C19.5938 1.96737 18.2119 0.611572 16.5 0.611572C14.7881 0.611572 13.4062 1.96737 13.4062 3.64695V5.02299C7.48688 6.39903 4.125 11.5794 4.125 17.812V27.93L0 31.9771V34.0007H33V31.9771L28.875 27.93Z"/>
</mask>
<path d="M16.5 40.0715C18.7688 40.0715 20.625 38.2503 20.625 36.0243H12.375C12.375 38.2503 14.2106 40.0715 16.5 40.0715ZM28.875 27.93V17.812C28.875 11.5996 25.4925 6.39903 19.5938 5.02299V3.64695C19.5938 1.96737 18.2119 0.611572 16.5 0.611572C14.7881 0.611572 13.4062 1.96737 13.4062 3.64695V5.02299C7.48688 6.39903 4.125 11.5794 4.125 17.812V27.93L0 31.9771V34.0007H33V31.9771L28.875 27.93Z" stroke="url(#paint0_linear_16_184)" stroke-width="10" mask="url(#path-1-inside-1_16_184)"/>
<defs>
<linearGradient id="paint0_linear_16_184" x1="16.5" y1="0.611572" x2="16.5" y2="40.0715" gradientUnits="userSpaceOnUse">
<stop stop-color="#3254BD"/>
<stop offset="0.839229" stop-color="#6C1182"/>
<stop offset="1" stop-color="#4E33A0"/>
</linearGradient>
</defs>
</svg>
