<svg width="255" height="57" viewBox="0 0 255 57" fill="none" xmlns="http://www.w3.org/2000/svg">
<path d="M67.9999 28.9629L67.9416 46.3582H66.5264L66.5769 30.0314C66.6089 19.7747 58.984 11.4417 49.567 11.4417C44.8698 11.4417 40.6172 13.5171 37.5393 16.8685C37.4839 16.9286 37.4284 16.9901 37.3729 17.0517L37.3622 17.0638L37.3317 17.0982C37.2606 17.1783 37.1894 17.2585 37.1219 17.3401L37.0508 17.4259C37.0351 17.4446 37.0195 17.4624 37.0045 17.481C36.9697 17.5218 36.9334 17.5626 36.9014 17.6041L36.8452 17.6757C36.7848 17.7473 36.7258 17.8231 36.6667 17.8983L36.6525 17.9162C36.5651 18.0278 36.4783 18.1402 36.393 18.2547C36.3076 18.3692 36.213 18.4973 36.1249 18.6204L36.0992 18.6569L36.0409 18.7399C36.0018 18.7957 35.9627 18.8522 35.9243 18.9088C35.8859 18.9653 35.8468 19.0226 35.8091 19.0791C35.7714 19.1356 35.7323 19.1936 35.6953 19.2516C35.6704 19.2888 35.647 19.3231 35.6242 19.3632C35.2858 19.8896 34.9739 20.4327 34.6898 20.9906C34.6485 21.0722 34.6073 21.1538 34.5674 21.2353C34.5276 21.3169 34.4871 21.3999 34.448 21.483C34.4352 21.5094 34.4231 21.5359 34.411 21.5624C34.3576 21.6755 34.305 21.7893 34.2545 21.9038C34.2382 21.9403 34.2218 21.9753 34.2062 22.0133C34.204 22.0177 34.2021 22.0222 34.2005 22.0268L34.155 22.1321C34.1393 22.1669 34.1244 22.2019 34.1102 22.2373C34.0739 22.3217 34.0391 22.4069 34.0042 22.4927C33.9694 22.5786 33.9331 22.6638 33.9018 22.7504C33.8705 22.837 33.8357 22.9236 33.803 23.0102C33.7766 23.0817 33.7503 23.1497 33.7261 23.2198C33.702 23.29 33.6757 23.363 33.6515 23.4302C33.6173 23.5257 33.5846 23.623 33.5533 23.7222C33.5292 23.7938 33.5071 23.8618 33.4858 23.9312C33.473 23.9698 33.4609 24.0078 33.4495 24.0464C33.4381 24.0851 33.426 24.1223 33.414 24.1609C33.3905 24.2396 33.367 24.3191 33.3428 24.3985C33.3187 24.4779 33.2966 24.5574 33.2753 24.6375C33.2539 24.7177 33.2319 24.795 33.2113 24.8744L33.1579 25.0812C33.1416 25.1485 33.1245 25.2165 33.1089 25.2838C33.0989 25.3238 33.0897 25.3639 33.0804 25.4047C33.0662 25.4655 33.052 25.5264 33.0392 25.5872C32.9828 25.8362 32.9318 26.0872 32.8863 26.3401C32.8863 26.3451 32.8863 26.3501 32.8863 26.3551L32.8479 26.5755C32.8337 26.6578 32.8201 26.7401 32.8073 26.8231C32.6434 27.8646 32.5614 28.9175 32.562 29.972V44.9112C31.6565 43.9216 31.1567 42.6238 31.1632 41.2785L31.2037 29.2134C31.2047 28.896 31.1866 28.5789 31.1497 28.2637C31.2022 26.6399 31.4664 25.03 31.9355 23.4753C32.1663 22.7116 32.4468 21.9641 32.7753 21.2375C32.947 20.8558 33.1314 20.4818 33.3286 20.1154C33.4647 19.8601 33.6069 19.608 33.7553 19.3589C34.044 18.8761 34.3555 18.4057 34.6898 17.9477L34.7082 17.9219C34.923 17.6289 35.1468 17.3427 35.3796 17.0631C35.4734 16.9493 35.5687 16.8377 35.664 16.726C35.8873 16.467 36.1196 16.2134 36.361 15.9653C36.4178 15.9052 36.4762 15.8458 36.5352 15.7864C39.1168 13.1893 42.4065 11.4221 45.9873 10.7087C49.5681 9.99531 53.2788 10.3679 56.649 11.7792C60.0191 13.1905 62.897 15.5771 64.9178 18.6362C66.9386 21.6954 68.0113 25.2895 67.9999 28.9629Z" fill="url(#paint0_linear_11_44)"/>
<path d="M66.5769 30.0314L66.5264 46.3604H62.6065L62.6663 28.5185C62.6912 21.2189 56.8192 15.289 49.5669 15.289C47.8461 15.2873 46.1419 15.6278 44.5523 16.291C42.9627 16.9542 41.519 17.927 40.3042 19.1535C40.2412 19.217 40.1786 19.2814 40.1165 19.3468C40.0959 19.3675 40.0759 19.389 40.056 19.4104C39.9934 19.477 39.9316 19.5443 39.8704 19.6115C39.8093 19.6788 39.7481 19.7489 39.6877 19.8184C39.6734 19.8348 39.6592 19.852 39.6443 19.8685C39.5916 19.9307 39.5397 19.9923 39.4871 20.056L39.4594 20.0889C39.4252 20.1297 39.3925 20.1705 39.3598 20.212L39.2617 20.3358C39.229 20.3773 39.197 20.4188 39.165 20.461C39.133 20.5032 39.1017 20.5448 39.0704 20.587C39.0391 20.6292 38.9936 20.69 38.9566 20.7423C38.9196 20.7945 38.8812 20.8468 38.8449 20.8997L38.756 21.0285C38.7269 21.0708 38.6992 21.113 38.6707 21.1552C38.6636 21.1652 38.6572 21.1752 38.6508 21.186C38.6124 21.2432 38.5747 21.3012 38.5377 21.3592L38.5235 21.3813C38.4943 21.4271 38.4659 21.4737 38.4375 21.5202C38.4261 21.5388 38.414 21.5574 38.4026 21.5767L38.3955 21.5889C38.3692 21.6311 38.3436 21.6733 38.3187 21.7163C38.2938 21.7592 38.2782 21.7843 38.259 21.8179L38.2362 21.8573C38.2085 21.9045 38.1814 21.9517 38.1551 22.0004C38.1288 22.049 38.1018 22.0956 38.0762 22.1435C38.0655 22.1628 38.0541 22.1822 38.0435 22.2022L38.0293 22.2294L37.9987 22.2874L37.934 22.4112C37.9048 22.467 37.8764 22.5235 37.8486 22.5793C37.8209 22.6352 37.8003 22.6774 37.7775 22.7268C37.7548 22.7761 37.7348 22.8148 37.7149 22.8584L37.7071 22.8749L37.6595 22.9787L37.6417 23.018C37.5947 23.1197 37.5507 23.222 37.508 23.3243C37.4866 23.3751 37.4653 23.426 37.4447 23.4768C37.4177 23.5426 37.3914 23.6084 37.3658 23.675C37.3117 23.8134 37.2603 23.9524 37.2114 24.0922C37.1678 24.2144 37.1268 24.3377 37.0884 24.4622C37.0841 24.4744 37.0799 24.4873 37.0763 24.5001C37.0514 24.5781 37.0272 24.6569 37.0052 24.7356C36.9896 24.7885 36.9746 24.8422 36.9597 24.8959C36.9483 24.9381 36.9362 24.9796 36.9248 25.0219C36.9184 25.0433 36.9128 25.0655 36.9071 25.087C36.8694 25.2301 36.8359 25.3782 36.8004 25.5257C36.7869 25.5836 36.7741 25.6423 36.7613 25.701L36.7549 25.7318C36.7549 25.7354 36.7549 25.7396 36.7549 25.7439C36.7279 25.8747 36.7025 26.0066 36.6788 26.1397C36.6752 26.1583 36.6717 26.1769 36.6688 26.1962L36.639 26.373C36.639 26.3802 36.639 26.3873 36.6354 26.3952C36.6254 26.4632 36.6148 26.5319 36.6055 26.5999C36.6055 26.6099 36.6055 26.6192 36.6013 26.6292C36.5927 26.6922 36.5842 26.7559 36.5764 26.8188C36.5764 26.826 36.5764 26.8332 36.5764 26.8403C36.5622 26.9562 36.5494 27.0729 36.538 27.1896C36.538 27.2196 36.5323 27.2497 36.5302 27.2797C36.5195 27.3928 36.511 27.5066 36.5038 27.6204C36.5038 27.6268 36.5038 27.6325 36.5038 27.639C36.5038 27.6576 36.5038 27.6762 36.5038 27.6948V27.6984C36.5003 27.747 36.4982 27.7964 36.496 27.8415C36.4925 27.9059 36.4903 27.9703 36.4882 28.0347C36.4882 28.0777 36.4882 28.1213 36.4882 28.165V28.1779C36.4882 28.2179 36.4882 28.258 36.4882 28.2981C36.4882 28.3546 36.4882 28.4119 36.4882 28.4684V46.3582H34.7544C34.4877 46.2667 34.2287 46.1538 33.98 46.0204C33.4467 45.7347 32.9657 45.3596 32.5577 44.9112V29.9663C32.5571 28.9118 32.6391 27.8589 32.803 26.8174C32.8158 26.7344 32.8293 26.6521 32.8436 26.5698L32.882 26.3494C32.882 26.3444 32.882 26.3394 32.882 26.3344C32.9294 26.0815 32.9803 25.8305 33.0349 25.5815C33.0477 25.5207 33.0619 25.4598 33.0761 25.399C33.0854 25.3582 33.0946 25.3181 33.1046 25.2781C33.1202 25.2108 33.1373 25.1428 33.1536 25.0755L33.207 24.8687C33.2276 24.7893 33.2489 24.7105 33.271 24.6318C33.293 24.5531 33.3151 24.4722 33.3385 24.3928C33.362 24.3134 33.3847 24.2339 33.4096 24.1552C33.4217 24.1166 33.4331 24.0786 33.4452 24.0407C33.4573 24.0028 33.4687 23.9641 33.4815 23.9255C33.5035 23.8539 33.5256 23.7859 33.549 23.7165C33.5813 23.6211 33.614 23.5238 33.6472 23.4245C33.6713 23.3544 33.6962 23.2843 33.7218 23.2141L33.7986 23.0044C33.8313 22.9178 33.8641 22.8305 33.8975 22.7447C33.9309 22.6588 33.965 22.5722 33.9999 22.487C34.0347 22.4019 34.071 22.316 34.1059 22.2315C34.1201 22.1962 34.135 22.1612 34.1507 22.1263L34.1962 22.0211C34.1978 22.0165 34.1997 22.0119 34.2019 22.0075C34.2175 21.9703 34.2339 21.936 34.2502 21.898C34.3007 21.7835 34.3533 21.6698 34.4067 21.5567C34.4188 21.5302 34.4308 21.5037 34.4436 21.4772C34.4828 21.3942 34.5226 21.3119 34.5631 21.2296C34.6037 21.1473 34.6442 21.0665 34.6854 20.9849C34.9696 20.427 35.2815 19.8839 35.6199 19.3575C35.6441 19.3203 35.6675 19.2859 35.691 19.2458C35.7287 19.1879 35.7664 19.1306 35.8048 19.0734C35.8432 19.0161 35.8809 18.9596 35.92 18.9031C35.9591 18.8465 35.9975 18.79 36.0366 18.7342L36.0949 18.6511L36.1205 18.6146C36.2087 18.4916 36.2976 18.3692 36.3886 18.2489C36.4797 18.1287 36.5607 18.0221 36.6482 17.9104L36.6624 17.8926C36.7215 17.821 36.7805 17.7437 36.8409 17.67L36.8971 17.5984C36.9312 17.5569 36.9682 17.5161 37.0002 17.4753C37.0152 17.4567 37.0308 17.4388 37.0464 17.4202L37.1176 17.3343C37.1887 17.2528 37.2598 17.1726 37.3274 17.0925L37.3579 17.0581L37.3686 17.0459C37.4241 16.9844 37.4795 16.9229 37.535 16.8627C40.6129 13.5099 44.8655 11.436 49.5627 11.436C58.9839 11.4395 66.6089 19.7726 66.5769 30.0314Z" fill="url(#paint1_linear_11_44)"/>
<path d="M62.6663 28.5164L62.6066 46.3582C61.907 46.3582 61.2144 46.2192 60.5684 45.9493C59.9223 45.6793 59.3356 45.2836 58.8419 44.785C58.3482 44.2863 57.9571 43.6945 57.6912 43.0434C57.4252 42.3923 57.2896 41.6948 57.2921 40.9908L57.3327 28.9257C57.3413 26.9155 56.5797 24.9793 55.2064 23.5195C53.8331 22.0597 51.9536 21.1886 49.9586 21.0872C47.9635 20.9859 46.0064 21.6621 44.494 22.9753C42.9815 24.2885 42.0301 26.1377 41.8375 28.1385C41.8133 28.3875 41.8012 28.6395 41.8012 28.8964V40.9908C41.8031 42.334 41.3024 43.6285 40.3988 44.617L40.391 44.6256C40.3419 44.68 40.2907 44.7337 40.2388 44.7859C39.8658 45.1624 39.4388 45.4805 38.9723 45.7299C38.7184 45.8674 38.4533 45.9831 38.18 46.0755C37.7227 46.2312 37.2463 46.323 36.7641 46.3482C36.6681 46.3539 36.5707 46.3568 36.4733 46.3568H36.4676V28.472C36.4676 28.4155 36.4676 28.3582 36.4676 28.3017C36.4676 28.2616 36.4676 28.2215 36.4676 28.1814V28.1707C36.4676 28.1271 36.4676 28.0834 36.4676 28.0405C36.4676 27.9761 36.4719 27.9116 36.4754 27.8472C36.4754 27.7986 36.4797 27.7492 36.4832 27.7041V27.7005C36.4832 27.6819 36.4832 27.6633 36.4832 27.6447C36.4832 27.6383 36.4832 27.6325 36.4832 27.6261C36.4903 27.5123 36.4989 27.3985 36.5095 27.2854C36.5095 27.2554 36.5145 27.2253 36.5174 27.1953C36.5287 27.0786 36.5416 26.962 36.5558 26.846C36.5558 26.8389 36.5558 26.8317 36.5558 26.8246C36.5636 26.7616 36.5721 26.6979 36.5807 26.6349C36.5807 26.6249 36.5807 26.6156 36.5849 26.6056C36.5942 26.5376 36.6048 26.4689 36.6148 26.4009C36.6148 26.393 36.6148 26.3859 36.6184 26.3787L36.6482 26.202C36.6482 26.1826 36.6546 26.164 36.6582 26.1454C36.6816 26.0123 36.7065 25.8806 36.7343 25.7497C36.7343 25.7454 36.7343 25.7411 36.7343 25.7375L36.7407 25.7067C36.7499 25.6609 36.7599 25.6158 36.7705 25.57C36.7705 25.5572 36.7762 25.5443 36.7798 25.5314C36.8125 25.384 36.8509 25.238 36.8865 25.0927C36.8921 25.0712 36.8978 25.049 36.9042 25.0276C36.9156 24.9854 36.9277 24.9438 36.9391 24.9016C36.954 24.8479 36.969 24.7943 36.9846 24.7413C37.0074 24.6626 37.0315 24.5839 37.0557 24.5059C37.0593 24.493 37.0635 24.4801 37.0678 24.4679C37.1062 24.3434 37.1472 24.2201 37.1908 24.0979C37.2382 23.9577 37.2897 23.8186 37.3451 23.6807C37.3707 23.6142 37.3971 23.5483 37.4241 23.4825C37.4447 23.4317 37.466 23.3809 37.4874 23.3301C37.53 23.2277 37.5741 23.1254 37.6211 23.0238L37.6403 22.9823L37.6879 22.8785L37.6957 22.862C37.7157 22.8184 37.737 22.774 37.7583 22.7303C37.7797 22.6867 37.806 22.6316 37.8294 22.5829C37.8529 22.5343 37.8856 22.4706 37.9148 22.4147L37.9795 22.2909L38.0101 22.233L38.0243 22.2058C38.035 22.1857 38.0463 22.1664 38.057 22.1471C38.0826 22.0991 38.1089 22.0512 38.1359 22.004C38.163 21.9567 38.1893 21.9088 38.217 21.8608L38.2398 21.8215C38.259 21.7878 38.2789 21.7535 38.2995 21.7198C38.3201 21.6862 38.35 21.6347 38.3763 21.5925L38.3834 21.5803C38.3948 21.561 38.4069 21.5424 38.4183 21.5238C38.4467 21.4772 38.4759 21.4307 38.505 21.3849L38.5193 21.3627C38.5562 21.3048 38.5904 21.2468 38.6323 21.1895C38.6387 21.1788 38.6451 21.1688 38.6522 21.1588C38.6807 21.1166 38.7084 21.0743 38.7376 21.0321L38.8265 20.9033C38.8627 20.8503 38.8976 20.7981 38.9381 20.7458C38.9787 20.6936 39.0135 20.6421 39.0519 20.5906C39.0903 20.539 39.1145 20.5061 39.1465 20.4646C39.1785 20.4231 39.2105 20.3809 39.2432 20.3394L39.3413 20.2156C39.3741 20.174 39.4075 20.1333 39.4409 20.0925L39.4686 20.0595C39.5213 19.9958 39.5732 19.9343 39.6258 19.872C39.6407 19.8556 39.655 19.8384 39.6692 19.8219C39.7296 19.7504 39.7908 19.6831 39.8519 19.6151C39.9131 19.5471 39.975 19.4806 40.0376 19.414C40.0575 19.3926 40.0774 19.3711 40.098 19.3503C40.1601 19.2854 40.2227 19.221 40.2857 19.1571C41.5024 17.9277 42.949 16.953 44.542 16.2891C46.1349 15.6252 47.8428 15.2853 49.5669 15.289C56.8192 15.289 62.6912 21.2189 62.6663 28.5164Z" fill="url(#paint2_linear_11_44)"/>
<path d="M41.8375 28.1399C41.8133 28.389 41.8012 28.6409 41.8012 28.8978V40.9908C41.8031 42.3339 41.3024 43.6285 40.3988 44.617L40.4429 30.3176C40.4481 29.242 40.3675 28.1677 40.2018 27.1051C39.9805 25.6919 39.6058 24.3075 39.0846 22.9765C38.8869 22.4794 38.6712 21.9923 38.4375 21.5152C38.3977 21.4329 38.3564 21.3506 38.3152 21.269C38.031 20.7111 37.7191 20.168 37.3807 19.6416C37.2947 19.5078 37.2072 19.3746 37.1169 19.2437C36.886 18.9026 36.6442 18.5703 36.3915 18.2468C36.3047 18.1366 36.2173 18.0264 36.1284 17.9183C35.8861 17.623 35.6356 17.3367 35.3767 17.0595C32.3081 13.7618 28.0881 11.7258 23.433 11.7258C18.7394 11.7258 14.4832 13.8012 11.4053 17.1526C8.32746 20.5039 6.4223 25.1371 6.4223 30.2525V46.6445H5V29.1869C4.99947 25.5306 6.07268 21.9557 8.08481 18.9114C10.0969 15.867 12.9582 13.4889 16.3092 12.0758C19.6602 10.6628 23.3514 10.2779 26.9191 10.9694C30.4868 11.6609 33.7719 13.398 36.3616 15.9624L36.4918 16.092C36.6966 16.299 36.8952 16.5094 37.0877 16.7232C37.1851 16.8312 37.2819 16.9379 37.3757 17.0495C37.6194 17.331 37.8529 17.6173 38.0762 17.9083C38.1582 18.0147 38.2386 18.122 38.3173 18.2303C38.6515 18.6874 38.963 19.1578 39.2517 19.6416C39.3328 19.7766 39.4122 19.9131 39.49 20.0509C39.6986 20.4207 39.8941 20.7974 40.0767 21.1809C40.4726 22.0132 40.8055 22.8745 41.0723 23.7573C41.5011 25.182 41.758 26.6534 41.8375 28.1399Z" fill="url(#paint3_linear_11_44)"/>
<path d="M40.4429 30.3176L40.3988 44.6192L40.391 44.6278C40.3419 44.6822 40.2907 44.7358 40.2388 44.7881C39.8658 45.1645 39.4389 45.4827 38.9723 45.732C38.7184 45.8696 38.4534 45.9852 38.18 46.0777C37.7226 46.2327 37.2462 46.3237 36.7642 46.3482C36.6681 46.3539 36.5707 46.3568 36.4733 46.3568L36.5323 28.8012C36.5323 28.7296 36.5323 28.6581 36.5323 28.5865C36.5323 28.5636 36.5323 28.54 36.5323 28.5149C36.5323 28.4734 36.5323 28.4319 36.5323 28.3897C36.5323 28.3475 36.5323 28.2938 36.5273 28.2466C36.5224 28.1993 36.5231 28.1342 36.5202 28.0784C36.5145 27.966 36.5074 27.8544 36.4989 27.7427C36.4989 27.7277 36.4989 27.7127 36.4953 27.6984V27.6948C36.4953 27.6669 36.4911 27.639 36.4882 27.6111C36.474 27.4412 36.4565 27.2726 36.4356 27.1051C36.4278 27.0443 36.42 26.9834 36.4114 26.9233C36.4 26.8382 36.3872 26.7537 36.3737 26.6693C36.3659 26.617 36.3574 26.5641 36.3481 26.5118C36.3481 26.5118 36.3481 26.5075 36.3481 26.5054C36.3439 26.4782 36.3389 26.451 36.3339 26.4238C36.3232 26.3615 36.3119 26.2993 36.2998 26.2377C36.2877 26.1762 36.2756 26.1161 36.2635 26.0552C36.2336 25.9121 36.2021 25.7711 36.1689 25.6323L36.1262 25.4634C36.0841 25.2988 36.039 25.1359 35.9911 24.9746C35.9712 24.903 35.9499 24.8372 35.9278 24.7685C35.8852 24.6321 35.8399 24.4963 35.792 24.3613C35.7683 24.294 35.7446 24.2268 35.7209 24.1595C35.6981 24.0972 35.674 24.0343 35.6498 23.972C35.6256 23.9097 35.5943 23.8289 35.5659 23.7616C35.5374 23.6943 35.504 23.612 35.472 23.5376C35.4464 23.4782 35.4208 23.4188 35.3938 23.3601C35.3916 23.354 35.389 23.348 35.3859 23.3422C35.3781 23.3236 35.3696 23.305 35.3611 23.2871C35.3184 23.1926 35.275 23.0989 35.2295 23.0059C35.2287 23.0033 35.2275 23.0009 35.2259 22.9987C35.2067 22.9586 35.1875 22.9186 35.1676 22.8792C35.1321 22.8076 35.0965 22.7361 35.0581 22.6645C35.0197 22.5929 34.9834 22.5214 34.945 22.4498C34.9066 22.3782 34.8739 22.3224 34.8398 22.2587C34.7914 22.1728 34.7416 22.087 34.6912 22.0025C34.6613 21.9524 34.6314 21.9023 34.6001 21.853C34.5394 21.7537 34.4776 21.655 34.4145 21.5567C34.3434 21.4486 34.2723 21.342 34.2012 21.2368C34.1154 21.1127 34.0277 20.9908 33.938 20.8711C33.9188 20.8446 33.8989 20.8181 33.879 20.7924C33.842 20.7446 33.8044 20.6953 33.7659 20.6442C33.7169 20.5812 33.6678 20.5183 33.6173 20.4567C33.5668 20.3952 33.5185 20.3358 33.4687 20.2757C33.4189 20.2155 33.3777 20.1676 33.3314 20.1146C33.2888 20.0653 33.2461 20.0166 33.2027 19.9679L33.138 19.8964C33.0278 19.774 32.9147 19.6538 32.8002 19.5385C32.7547 19.492 32.7092 19.4455 32.663 19.3997L32.6551 19.3918C32.6004 19.3374 32.5449 19.2831 32.4887 19.2294C32.4325 19.1757 32.3813 19.127 32.3266 19.0762C32.1753 18.9331 32.021 18.7962 31.8636 18.6655C31.8124 18.6225 31.7605 18.5789 31.7086 18.5366C31.6268 18.4694 31.5443 18.4028 31.4611 18.3384C31.4092 18.2976 31.3566 18.2575 31.304 18.2182C31.2229 18.1566 31.1418 18.0965 31.06 18.0378C31.0145 18.0049 30.969 17.972 30.9228 17.9405C30.9198 17.9374 30.9161 17.935 30.9121 17.9333C30.8673 17.9004 30.8218 17.8696 30.7763 17.8389C30.6789 17.7723 30.58 17.7072 30.4812 17.6435C30.4442 17.6192 30.4065 17.5956 30.3688 17.5719C30.2742 17.5125 30.1796 17.4546 30.0843 17.398C30.0459 17.3751 30.0075 17.3522 29.9684 17.3265L29.8262 17.2442C29.7807 17.2184 29.7344 17.1926 29.6875 17.1676C29.6512 17.1468 29.6164 17.1275 29.578 17.1082C29.5211 17.0772 29.4642 17.0471 29.4073 17.018C29.3433 16.9851 29.2786 16.9529 29.2139 16.9214L29.1079 16.8742C29.0539 16.8477 28.9991 16.8212 28.9444 16.7962C28.8733 16.7618 28.7986 16.7246 28.7253 16.696C28.6521 16.6674 28.5966 16.6394 28.5326 16.6123L28.4124 16.5614L28.31 16.5199L28.2389 16.4906C28.1597 16.4591 28.0801 16.4283 28 16.3983L27.8805 16.3546C27.7994 16.3253 27.7183 16.2967 27.6366 16.2687C27.6003 16.2559 27.5654 16.2437 27.527 16.2322C27.4744 16.2144 27.4218 16.1972 27.3685 16.1807C27.3151 16.1643 27.2412 16.1406 27.1779 16.122C26.929 16.0476 26.6775 15.9806 26.4233 15.9209C26.3593 15.9059 26.2953 15.8909 26.2313 15.8773H26.2164L26.1403 15.8608C26.0827 15.8487 26.0251 15.8365 25.9675 15.8258L25.88 15.8086L25.7065 15.7771H25.6866C25.6276 15.7664 25.5685 15.7563 25.5095 15.7478C25.4832 15.7427 25.4569 15.7392 25.4306 15.7349C25.3666 15.7249 25.3026 15.7155 25.2379 15.707L25.1575 15.6962L24.9321 15.6676L24.7422 15.6476C24.6441 15.6383 24.5452 15.629 24.4456 15.6218C24.366 15.6154 24.2871 15.6103 24.2074 15.6053H24.1477L24.0218 15.5996C23.8284 15.5901 23.6335 15.5855 23.4372 15.586C19.9641 15.5849 16.6326 16.9718 14.1754 19.4419C11.7181 21.9121 10.3363 25.2631 10.3336 28.7582V46.6445H6.4223V30.2561C6.4223 25.1406 8.32605 20.509 11.4046 17.1597C14.4832 13.8105 18.7358 11.7258 23.433 11.7258C28.0881 11.7258 32.3053 13.7618 35.376 17.0603C35.6339 17.3379 35.8845 17.6242 36.1277 17.919C36.2166 18.0271 36.304 18.1337 36.3908 18.2475C36.643 18.57 36.8848 18.9023 37.1162 19.2444C37.2065 19.3754 37.294 19.5085 37.38 19.6423C37.7184 20.1687 38.0303 20.7118 38.3145 21.2697C38.3557 21.3513 38.3969 21.4336 38.4368 21.5159C38.67 21.9901 38.8846 22.476 39.0804 22.9737C39.6032 24.3051 39.9793 25.6903 40.2018 27.1044C40.3676 28.1672 40.4482 29.2418 40.4429 30.3176Z" fill="url(#paint4_linear_11_44)"/>
<path d="M36.5323 28.8026L36.4733 46.3582H34.7544C34.4877 46.2667 34.2287 46.1537 33.98 46.0204C33.1258 45.5628 32.4117 44.8794 31.9145 44.044C31.4173 43.2085 31.1558 42.2524 31.1582 41.2785L31.1987 29.2134C31.1997 28.896 31.1816 28.5789 31.1447 28.2637C30.9114 26.2845 29.9355 24.4698 28.4166 23.1908C26.8977 21.9117 24.9506 21.265 22.9735 21.3829C20.9964 21.5009 19.1388 22.3745 17.7807 23.8252C16.4226 25.2758 15.6665 27.1938 15.6672 29.1869V41.2771C15.6672 42.7006 15.1053 44.0658 14.1051 45.0724C13.1048 46.079 11.7482 46.6445 10.3336 46.6445V28.7582C10.3335 27.0271 10.6723 25.3128 11.3305 23.7134C11.9888 22.114 12.9537 20.6607 14.1701 19.4365C15.3865 18.2124 16.8306 17.2413 18.4199 16.5788C20.0092 15.9163 21.7127 15.5753 23.433 15.5753C23.6292 15.5753 23.8241 15.5798 24.0175 15.5889L24.1434 15.5946H24.2031C24.2828 15.5996 24.3617 15.6046 24.4414 15.6111C24.5409 15.6182 24.6398 15.6275 24.7379 15.6368L24.9278 15.6569L25.1532 15.6855L25.2336 15.6962C25.2983 15.7048 25.3623 15.7141 25.4263 15.7241C25.4526 15.7284 25.4789 15.732 25.5053 15.737C25.5643 15.7456 25.6233 15.7556 25.6823 15.7664H25.7022L25.8758 15.7978L25.9632 15.815C26.0208 15.8258 26.0784 15.8379 26.136 15.8501L26.2121 15.8665H26.2271C26.2911 15.8801 26.3551 15.8952 26.4191 15.9102C26.6737 15.9698 26.9252 16.0369 27.1736 16.1113C27.2369 16.1299 27.3009 16.1499 27.3642 16.17C27.4275 16.19 27.4702 16.2036 27.5228 16.2215C27.5598 16.233 27.5939 16.2451 27.6323 16.258C27.7141 16.2859 27.7951 16.3145 27.8762 16.3439L27.9957 16.3875C28.0758 16.4176 28.1555 16.4484 28.2346 16.4799L28.3058 16.5092L28.4082 16.5507L28.5283 16.6015C28.5923 16.6287 28.6571 16.6566 28.7211 16.6852C28.7851 16.7139 28.8676 16.7511 28.9401 16.7854C28.9949 16.8105 29.0496 16.837 29.1037 16.8634L29.1997 16.9107C29.2644 16.9422 29.3291 16.9744 29.3931 17.0073C29.4571 17.0402 29.5069 17.0667 29.5638 17.0975C29.6 17.1168 29.6349 17.1361 29.6733 17.1569C29.7202 17.1819 29.7665 17.2077 29.812 17.2334L29.9542 17.3157C29.9933 17.3379 30.0317 17.3608 30.0701 17.3873C30.1661 17.4438 30.2607 17.5018 30.3546 17.5612C30.3923 17.5848 30.43 17.6084 30.4669 17.6328C30.5658 17.6965 30.6646 17.7616 30.7621 17.8281C30.8076 17.8589 30.8531 17.8897 30.8979 17.9226C30.9019 17.9242 30.9055 17.9267 30.9086 17.9298C30.9548 17.9612 31.0003 17.9942 31.0458 18.0271C31.1276 18.0858 31.2087 18.1459 31.2897 18.2074C31.3424 18.2468 31.395 18.2869 31.4469 18.3277C31.5301 18.3921 31.6126 18.4586 31.6944 18.5259C31.7463 18.5681 31.7982 18.6118 31.8494 18.6547C32.0068 18.7878 32.1611 18.9248 32.3124 19.0655C32.3671 19.1163 32.4212 19.1671 32.4745 19.2186C32.5278 19.2702 32.5862 19.3267 32.6409 19.3811L32.6487 19.389C32.695 19.4348 32.7405 19.4813 32.786 19.5278C32.9005 19.6459 33.0136 19.7661 33.1238 19.8856L33.1885 19.9572C33.2319 20.0059 33.2745 20.0545 33.3172 20.1039C33.3407 20.1304 33.3634 20.1576 33.3883 20.1841L33.4495 20.2556C33.5021 20.3176 33.554 20.3806 33.6052 20.4446C33.6557 20.5061 33.7048 20.5691 33.7539 20.6321C33.7923 20.6798 33.83 20.7291 33.8669 20.7802C33.8868 20.806 33.9068 20.8324 33.926 20.8589C34.0156 20.9791 34.1033 21.101 34.1891 21.2246C34.2602 21.3298 34.3313 21.4393 34.4024 21.5445C34.4735 21.6497 34.5276 21.7413 34.588 21.8408C34.6193 21.8902 34.6492 21.9403 34.6791 21.9904C34.7296 22.0748 34.7793 22.1607 34.8277 22.2466C34.8633 22.3102 34.8988 22.3732 34.9329 22.4376C34.9671 22.502 35.009 22.5808 35.046 22.6523C35.083 22.7239 35.1171 22.7955 35.1555 22.867C35.1754 22.9064 35.1946 22.9465 35.2138 22.9865C35.2155 22.9887 35.2167 22.9911 35.2174 22.9937C35.2629 23.0867 35.3063 23.1805 35.349 23.2749C35.3575 23.2928 35.366 23.3114 35.3739 23.33C35.3769 23.3358 35.3795 23.3418 35.3817 23.3479C35.4087 23.4066 35.4343 23.466 35.4599 23.5254C35.4919 23.597 35.5232 23.6743 35.5538 23.7494C35.5844 23.8246 35.61 23.8925 35.6377 23.9598C35.6654 24.0271 35.6853 24.0851 35.7088 24.1473C35.7323 24.2096 35.7579 24.2819 35.7799 24.3491C35.8273 24.4837 35.8726 24.6194 35.9158 24.7563C35.9378 24.8279 35.9584 24.8937 35.979 24.9624C36.0265 25.1237 36.0715 25.2866 36.1142 25.4512L36.1568 25.6201C36.1905 25.7594 36.222 25.9004 36.2514 26.0431C36.2635 26.1039 36.2763 26.1647 36.2877 26.2256C36.2991 26.2864 36.3111 26.3494 36.3218 26.4116C36.3268 26.4388 36.3318 26.466 36.336 26.4932C36.336 26.4932 36.336 26.4975 36.336 26.4997C36.3453 26.5519 36.3538 26.6049 36.3616 26.6571C36.3752 26.7415 36.388 26.826 36.3993 26.9112C36.4079 26.9713 36.4157 27.0321 36.4235 27.0929C36.4439 27.2604 36.4614 27.429 36.4761 27.5989C36.4761 27.6268 36.4811 27.6547 36.4832 27.6826V27.6862C36.4832 27.7005 36.4832 27.7155 36.4868 27.7306C36.4953 27.8422 36.5024 27.9539 36.5081 28.0662C36.5081 28.122 36.5138 28.1786 36.5152 28.2344C36.5167 28.2902 36.5188 28.3303 36.5202 28.3775C36.5217 28.4248 36.5202 28.4613 36.5202 28.5028C36.5202 28.5264 36.5202 28.55 36.5202 28.5743C36.5323 28.6581 36.5323 28.7303 36.5323 28.8026Z" fill="url(#paint5_linear_11_44)"/>
<path d="M77.89 23.706C76.5727 23.706 75.5087 23.3513 74.698 22.642C73.9127 21.9073 73.52 20.9953 73.52 19.906C73.52 18.7913 73.9127 17.8667 74.698 17.132C75.5087 16.3973 76.5727 16.03 77.89 16.03C79.182 16.03 80.2207 16.3973 81.006 17.132C81.8167 17.8667 82.222 18.7913 82.222 19.906C82.222 20.9953 81.8167 21.9073 81.006 22.642C80.2207 23.3513 79.182 23.706 77.89 23.706ZM81.576 25.682V47H74.128V25.682H81.576ZM99.7635 25.492C102.221 25.492 104.171 26.3153 105.615 27.962C107.059 29.5833 107.781 31.7873 107.781 34.574V47H100.333V35.562C100.333 34.346 100.017 33.396 99.3835 32.712C98.7501 32.0027 97.9015 31.648 96.8375 31.648C95.7228 31.648 94.8488 32.0027 94.2155 32.712C93.5821 33.396 93.2655 34.346 93.2655 35.562V47H85.8175V25.682H93.2655V28.722C93.9241 27.7593 94.8108 26.9867 95.9255 26.404C97.0401 25.796 98.3195 25.492 99.7635 25.492ZM110.652 36.322C110.652 34.118 111.045 32.1927 111.83 30.546C112.641 28.8993 113.73 27.6327 115.098 26.746C116.492 25.8593 118.037 25.416 119.734 25.416C121.204 25.416 122.47 25.7073 123.534 26.29C124.598 26.8727 125.422 27.658 126.004 28.646V25.682H133.452V47H126.004V44.036C125.422 45.024 124.586 45.8093 123.496 46.392C122.432 46.9747 121.178 47.266 119.734 47.266C118.037 47.266 116.492 46.8227 115.098 45.936C113.73 45.0493 112.641 43.7827 111.83 42.136C111.045 40.464 110.652 38.526 110.652 36.322ZM126.004 36.322C126.004 34.954 125.624 33.8773 124.864 33.092C124.13 32.3067 123.218 31.914 122.128 31.914C121.014 31.914 120.089 32.3067 119.354 33.092C118.62 33.852 118.252 34.9287 118.252 36.322C118.252 37.69 118.62 38.7793 119.354 39.59C120.089 40.3753 121.014 40.768 122.128 40.768C123.218 40.768 124.13 40.3753 124.864 39.59C125.624 38.8047 126.004 37.7153 126.004 36.322ZM151.642 25.492C154.1 25.492 156.05 26.3153 157.494 27.962C158.938 29.5833 159.66 31.7873 159.66 34.574V47H152.212V35.562C152.212 34.346 151.896 33.396 151.262 32.712C150.629 32.0027 149.78 31.648 148.716 31.648C147.602 31.648 146.728 32.0027 146.094 32.712C145.461 33.396 145.144 34.346 145.144 35.562V47H137.696V25.682H145.144V28.722C145.803 27.7593 146.69 26.9867 147.804 26.404C148.919 25.796 150.198 25.492 151.642 25.492ZM162.531 36.322C162.531 34.118 162.987 32.1927 163.899 30.546C164.811 28.8993 166.078 27.6327 167.699 26.746C169.346 25.8593 171.22 25.416 173.323 25.416C176.034 25.416 178.314 26.1633 180.163 27.658C182.012 29.1273 183.203 31.192 183.735 33.852H175.831C175.375 32.4587 174.488 31.762 173.171 31.762C172.234 31.762 171.486 32.1547 170.929 32.94C170.397 33.7 170.131 34.8273 170.131 36.322C170.131 37.8167 170.397 38.9567 170.929 39.742C171.486 40.5273 172.234 40.92 173.171 40.92C174.514 40.92 175.4 40.2233 175.831 38.83H183.735C183.203 41.4647 182.012 43.5293 180.163 45.024C178.314 46.5187 176.034 47.266 173.323 47.266C171.22 47.266 169.346 46.8227 167.699 45.936C166.078 45.0493 164.811 43.7827 163.899 42.136C162.987 40.4893 162.531 38.5513 162.531 36.322ZM207.197 36.094C207.197 36.6767 207.159 37.2593 207.083 37.842H192.985C193.061 39.0073 193.378 39.8813 193.935 40.464C194.518 41.0213 195.253 41.3 196.139 41.3C197.381 41.3 198.267 40.7427 198.799 39.628H206.741C206.412 41.0973 205.766 42.4147 204.803 43.58C203.866 44.72 202.675 45.6193 201.231 46.278C199.787 46.9367 198.191 47.266 196.443 47.266C194.341 47.266 192.466 46.8227 190.819 45.936C189.198 45.0493 187.919 43.7827 186.981 42.136C186.069 40.4893 185.613 38.5513 185.613 36.322C185.613 34.0927 186.069 32.1673 186.981 30.546C187.893 28.8993 189.16 27.6327 190.781 26.746C192.428 25.8593 194.315 25.416 196.443 25.416C198.546 25.416 200.408 25.8467 202.029 26.708C203.651 27.5693 204.917 28.8107 205.829 30.432C206.741 32.028 207.197 33.9153 207.197 36.094ZM199.597 34.232C199.597 33.32 199.293 32.6107 198.685 32.104C198.077 31.572 197.317 31.306 196.405 31.306C195.493 31.306 194.746 31.5593 194.163 32.066C193.581 32.5473 193.201 33.2693 193.023 34.232H199.597Z" fill="white"/>
<defs>
<linearGradient id="paint0_linear_11_44" x1="31.1447" y1="28.3546" x2="67.9999" y2="28.3546" gradientUnits="userSpaceOnUse">
<stop offset="0.21" stop-color="#FCEE21"/>
<stop offset="0.55" stop-color="#29ABE2"/>
<stop offset="0.68" stop-color="#29ABE2"/>
<stop offset="0.93" stop-color="#00FFFF"/>
<stop offset="1" stop-color="#0000FF" stop-opacity="0.38"/>
</linearGradient>
<linearGradient id="paint1_linear_11_44" x1="32.557" y1="28.8985" x2="66.5769" y2="28.8985" gradientUnits="userSpaceOnUse">
<stop stop-color="#FFFF00"/>
<stop offset="0.32" stop-color="#0000FF" stop-opacity="0.38"/>
<stop offset="0.55" stop-color="#29ABE2"/>
<stop offset="0.68" stop-color="#29ABE2"/>
<stop offset="0.93" stop-color="#00FFFF"/>
</linearGradient>
<linearGradient id="paint2_linear_11_44" x1="36.4676" y1="30.8236" x2="78.0641" y2="30.8236" gradientUnits="userSpaceOnUse">
<stop offset="0.03" stop-color="#29ABE2"/>
<stop offset="0.21" stop-color="#FCEE21"/>
<stop offset="0.54" stop-color="#29ABE2"/>
<stop offset="0.72" stop-color="#0000FF"/>
<stop offset="1" stop-color="#0000FF"/>
</linearGradient>
<linearGradient id="paint3_linear_11_44" x1="5" y1="28.6409" x2="41.8375" y2="28.6409" gradientUnits="userSpaceOnUse">
<stop offset="0.21" stop-color="#FCEE21"/>
<stop offset="0.55" stop-color="#761F8B"/>
<stop offset="0.68" stop-color="#29ABE2"/>
<stop offset="0.93" stop-color="#00FFFF"/>
<stop offset="1" stop-color="#0000FF" stop-opacity="0.38"/>
</linearGradient>
<linearGradient id="paint4_linear_11_44" x1="6.42301" y1="29.1848" x2="40.4429" y2="29.1848" gradientUnits="userSpaceOnUse">
<stop stop-color="#FFFF00"/>
<stop offset="0.32" stop-color="#0000FF" stop-opacity="0.38"/>
<stop offset="0.55" stop-color="#29ABE2"/>
<stop offset="0.68" stop-color="#29ABE2"/>
<stop offset="0.93" stop-color="#00FFFF"/>
</linearGradient>
<linearGradient id="paint5_linear_11_44" x1="10.3336" y1="31.1099" x2="51.9301" y2="31.1099" gradientUnits="userSpaceOnUse">
<stop offset="0.03" stop-color="#FAFF00"/>
<stop offset="0.21" stop-color="#FCEE21"/>
<stop offset="0.54" stop-color="#29ABE2"/>
<stop offset="0.72" stop-color="#0000FF"/>
<stop offset="1" stop-color="#0000FF"/>
</linearGradient>
</defs>
</svg>
