<svg width="48" height="48" viewBox="0 0 48 48" fill="none" xmlns="http://www.w3.org/2000/svg">
<path fill-rule="evenodd" clip-rule="evenodd" d="M22.334 24.5836L25.9069 25.5422C27.5744 25.9896 28.2689 27.3689 27.8038 28.9483C27.4953 30.1011 26.7025 30.9961 25.6434 31.138C25.2436 31.2011 24.7169 31.1024 24.2802 30.9852L20.866 30.0692L22.334 24.5836ZM28.7163 18.5418C29.3245 19.131 29.4691 20.0219 29.2244 20.9361C28.8415 22.3672 27.7418 23.1373 26.3127 22.7539L23.0573 21.8805L24.3444 17.0705L27.2028 17.8374C27.838 18.0078 28.3725 18.2366 28.7163 18.5418ZM23.8638 33.8133C23.3674 35.6684 23.1192 36.596 23.1192 36.596C23.1192 36.596 22.4972 36.4291 21.2533 36.0953L21.9979 33.3127L20.0527 32.7908C19.5562 34.6459 19.308 35.5734 19.308 35.5734C19.308 35.5734 18.6861 35.4066 17.4422 35.0728L18.1868 32.2901C15.6989 31.6226 14.455 31.2889 14.455 31.2889C14.455 31.2889 14.6819 30.4409 15.1358 28.745L16.2871 29.0539C16.8825 29.2136 17.4469 28.8537 17.5958 28.2972L20.6062 17.0476C20.7658 16.4513 20.4064 15.8863 19.8506 15.7372C19.0831 15.5312 18.6993 15.4283 18.6993 15.4283C18.6993 15.4283 18.9262 14.5802 19.3801 12.8841L23.1119 13.8854C23.6083 12.0303 23.8565 11.1028 23.8565 11.1028C23.8565 11.1028 24.4785 11.2696 25.7224 11.6034L24.9778 14.386L26.923 14.9079C27.4194 13.0528 27.6676 12.1253 27.6676 12.1253C27.6676 12.1253 28.2896 12.2922 29.5336 12.6259L28.7783 15.4482C29.7204 15.7436 30.4428 16.0653 31.112 16.5857C32.6092 17.669 33.3457 19.5282 32.7925 21.5953C32.3244 23.3444 31.1474 24.5624 29.4765 24.9235C31.36 26.1532 31.7944 28.1869 31.2732 30.1348C30.5634 32.6284 28.4066 34.0096 26.2514 34.1131C25.3937 34.1386 24.6578 34.0263 23.8638 33.8133ZM5.0528 18.8819C2.2658 29.2967 8.4559 40.0326 18.8572 42.8232C29.2585 45.6139 39.9802 39.4155 42.7672 29.0007C45.5542 18.5858 39.364 7.85005 28.9628 5.0594C18.5615 2.26872 7.83979 8.46705 5.0528 18.8819Z" fill="#F28931"/>
</svg>
