<svg width="31" height="31" viewBox="0 0 31 31" fill="none" xmlns="http://www.w3.org/2000/svg">
<ellipse cx="15.09" cy="15.11" rx="15.09" ry="15.11" fill="white"/>
<path fill-rule="evenodd" clip-rule="evenodd" d="M7.34644 15.11L15.2885 2.3858V11.684L7.34644 15.11ZM22.8335 15.11L15.2885 11.6885V2.3858L22.8335 15.11Z" fill="#828384"/>
<path fill-rule="evenodd" clip-rule="evenodd" d="M15.2885 19.8816L7.34644 15.4086L15.2885 11.929V19.8816ZM22.8335 15.4094L15.2885 19.8816V11.929L22.8335 15.4094Z" fill="#343535"/>
<path fill-rule="evenodd" clip-rule="evenodd" d="M7.34644 17.0981L15.2885 21.6889V27.8342L7.34644 17.0981ZM22.8335 17.0981L15.2885 27.8342V21.6883L22.8335 17.0981Z" fill="#828384"/>
<path fill-rule="evenodd" clip-rule="evenodd" d="M22.8335 15.11L15.2885 11.6885V2.3858L22.8335 15.11Z" fill="#2F3030"/>
<path fill-rule="evenodd" clip-rule="evenodd" d="M22.8335 15.4094L15.2885 11.929V19.8816L22.8335 15.4094Z" fill="#131313"/>
<path fill-rule="evenodd" clip-rule="evenodd" d="M22.8335 17.0981L15.2885 21.6883V27.8342L22.8335 17.0981Z" fill="#2F3030"/>
</svg>
