<svg width="86" height="86" viewBox="0 0 86 86" fill="none" xmlns="http://www.w3.org/2000/svg">
<path fill-rule="evenodd" clip-rule="evenodd" d="M40.0816 44.1188L46.4938 45.8392C49.4863 46.6421 50.7327 49.1175 49.898 51.952C49.3444 54.0208 47.9216 55.6271 46.0208 55.8817C45.3034 55.995 44.358 55.8177 43.5744 55.6075L37.4472 53.9636L40.0816 44.1188ZM51.5357 33.276C52.6271 34.3335 52.8866 35.9323 52.4475 37.573C51.7603 40.1413 49.7868 41.5233 47.222 40.8352L41.3796 39.2677L43.6896 30.6355L48.8195 32.0119C49.9593 32.3177 50.9187 32.7282 51.5357 33.276ZM42.8272 60.6829C41.9363 64.0122 41.4908 65.6768 41.4908 65.6768C41.4908 65.6768 40.3746 65.3774 38.1421 64.7784L39.4785 59.7844L35.9875 58.8478C35.0966 62.1771 34.6511 63.8418 34.6511 63.8418C34.6511 63.8418 33.5349 63.5423 31.3026 62.9433L32.6389 57.9494C28.1741 56.7515 25.9417 56.1525 25.9417 56.1525C25.9417 56.1525 26.3489 54.6307 27.1634 51.587L29.2296 52.1414C30.2981 52.4281 31.311 51.7822 31.5783 50.7835L36.9809 30.5944C37.2672 29.5243 36.6223 28.5103 35.6249 28.2427C34.2474 27.8731 33.5586 27.6883 33.5586 27.6883C33.5586 27.6883 33.9659 26.1663 34.7805 23.1224L41.4777 24.9193C42.3686 21.5901 42.8141 19.9256 42.8141 19.9256C42.8141 19.9256 43.9302 20.225 46.1626 20.824L44.8263 25.8177L48.3173 26.7544C49.2082 23.4252 49.6536 21.7606 49.6536 21.7606C49.6536 21.7606 50.7698 22.0601 53.0023 22.6591L51.6469 27.7241C53.3377 28.2542 54.634 28.8315 55.8351 29.7654C58.522 31.7096 59.8437 35.0461 58.851 38.7559C58.011 41.895 55.8986 44.0808 52.8999 44.7289C56.2801 46.9358 57.0597 50.5855 56.1243 54.0813C54.8505 58.5565 50.9798 61.0353 47.112 61.221C45.5728 61.2667 44.2521 61.0652 42.8272 60.6829ZM9.068 33.8863C4.06633 52.5772 15.1754 71.8443 33.8421 76.8526C52.5086 81.8608 71.7504 70.7369 76.7521 52.0459C81.7538 33.355 70.6445 14.0881 51.978 9.07983C33.3113 4.07155 14.0697 15.1954 9.068 33.8863Z" fill="white"/>
</svg>
