<svg width="56" height="38" viewBox="0 0 56 38" fill="none" xmlns="http://www.w3.org/2000/svg">
<path opacity="0.8" d="M38 16.2857C42.15 16.2857 45.475 12.6486 45.475 8.14286C45.475 3.63714 42.15 0 38 0C33.85 0 30.5 3.63714 30.5 8.14286C30.5 12.6486 33.85 16.2857 38 16.2857ZM18 16.2857C22.15 16.2857 25.475 12.6486 25.475 8.14286C25.475 3.63714 22.15 0 18 0C13.85 0 10.5 3.63714 10.5 8.14286C10.5 12.6486 13.85 16.2857 18 16.2857ZM18 21.7143C12.175 21.7143 0.5 24.89 0.5 31.2143V38H35.5V31.2143C35.5 24.89 23.825 21.7143 18 21.7143ZM38 21.7143C37.275 21.7143 36.45 21.7686 35.575 21.85C38.475 24.13 40.5 27.1971 40.5 31.2143V38H55.5V31.2143C55.5 24.89 43.825 21.7143 38 21.7143Z" fill="white"/>
</svg>
