<svg width="49" height="47" viewBox="0 0 49 47" fill="none" xmlns="http://www.w3.org/2000/svg">
<path opacity="0.8" d="M24.5 0C11.252 0 0.5 10.528 0.5 23.5C0.5 36.472 11.252 47 24.5 47C37.748 47 48.5 36.472 48.5 23.5C48.5 10.528 37.748 0 24.5 0ZM26.9 39.95H22.1V35.25H26.9V39.95ZM31.868 21.7375L29.708 23.8995C27.98 25.615 26.9 27.025 26.9 30.55H22.1V29.375C22.1 26.79 23.18 24.44 24.908 22.7245L27.884 19.7635C28.772 18.9175 29.3 17.7425 29.3 16.45C29.3 13.865 27.14 11.75 24.5 11.75C21.86 11.75 19.7 13.865 19.7 16.45H14.9C14.9 11.2565 19.196 7.05 24.5 7.05C29.804 7.05 34.1 11.2565 34.1 16.45C34.1 18.518 33.236 20.398 31.868 21.7375Z" fill="white" fill-opacity="0.8"/>
</svg>
