<svg width="51" height="52" viewBox="0 0 51 52" fill="none" xmlns="http://www.w3.org/2000/svg">
<g opacity="0.8" clip-path="url(#clip0_6_92)">
<path d="M40.035 27.9975C40.12 27.36 40.1625 26.7012 40.1625 26C40.1625 25.32 40.12 24.64 40.0137 24.0025L44.3275 20.645C44.71 20.3475 44.8162 19.7737 44.5825 19.3487L40.5025 12.2937C40.2475 11.8262 39.7162 11.6775 39.2487 11.8262L34.17 13.8662C33.1075 13.0587 31.9812 12.3787 30.7275 11.8687L29.9625 6.47123C29.8775 5.96123 29.4525 5.59998 28.9425 5.59998H20.7825C20.2725 5.59998 19.8687 5.96123 19.7837 6.47123L19.0187 11.8687C17.765 12.3787 16.6175 13.08 15.5762 13.8662L10.4975 11.8262C10.03 11.6562 9.49873 11.8262 9.24373 12.2937L5.18498 19.3487C4.92998 19.795 5.01498 20.3475 5.43998 20.645L9.75373 24.0025C9.64748 24.64 9.56248 25.3412 9.56248 26C9.56248 26.6587 9.60498 27.36 9.71123 27.9975L5.39748 31.355C5.01498 31.6525 4.90873 32.2262 5.14248 32.6512L9.22248 39.7062C9.47748 40.1737 10.0087 40.3225 10.4762 40.1737L15.555 38.1337C16.6175 38.9412 17.7437 39.6212 18.9975 40.1312L19.7625 45.5287C19.8687 46.0387 20.2725 46.4 20.7825 46.4H28.9425C29.4525 46.4 29.8775 46.0387 29.9412 45.5287L30.7062 40.1312C31.96 39.6212 33.1075 38.9412 34.1487 38.1337L39.2275 40.1737C39.695 40.3437 40.2262 40.1737 40.4812 39.7062L44.5612 32.6512C44.8162 32.1837 44.71 31.6525 44.3062 31.355L40.035 27.9975ZM24.8625 33.65C20.655 33.65 17.2125 30.2075 17.2125 26C17.2125 21.7925 20.655 18.35 24.8625 18.35C29.07 18.35 32.5125 21.7925 32.5125 26C32.5125 30.2075 29.07 33.65 24.8625 33.65Z" fill="white" fill-opacity="0.8"/>
</g>
<defs>
<clipPath id="clip0_6_92">
<rect width="51" height="51" fill="white" transform="translate(0 0.5)"/>
</clipPath>
</defs>
</svg>
